# xmcd CD database file
#
# Track frame offsets:
#	150
#	14020
#	31197
#	50742
#	66117
#	80965
#	90310
#	102660
#	117120
#	130800
#	138995
#	150665
#
# Disc length: 2327 seconds
#
# Revision: 0
# Processed by: cddbd v1.5.2PL0 Copyright (c) Steve Scherf et al.
# Submitted via: CDex 1.70beta2
#
DISCID=a109150c
DTITLE=Various Artist - Great Jazz and Vocal Stars, Vol. 3
DYEAR=1900
DGENRE=Jazz
TTITLE0=Louis Armstrong - A Kiss To Build A Dream On
TTITLE1=Stan Getz and Paul Horn - Nature Boy
TTITLE2=Al Jarreau - Sophisticated Lady
TTITLE3=Lena Horne - Stormy Weather
TTITLE4=Nat 'King' Cole and Oscar Peterson - Tenderly
TTITLE5=Ella Fitzgerald - Thou Swell
TTITLE6=Erroll Garner - Stardust
TTITLE7=Charlie Parker - My Old Flame
TTITLE8=Sarah Vaughan - Misty
TTITLE9=Herb Ellis - The Way We Were
TTITLE10=Peggy Lee - I Can't Give You Anything But Love
TTITLE11=Milt Jackson - A Time For Love
EXTD=
EXTT0=
EXTT1=
EXTT2=
EXTT3=
EXTT4=
EXTT5=
EXTT6=
EXTT7=
EXTT8=
EXTT9=
EXTT10=
EXTT11=
PLAYORDER=
